<?xml version="1.0" standalone="no"?>
<!DOCTYPE svg PUBLIC "-//W3C//DTD SVG 20010904//EN"
 "http://www.w3.org/TR/2001/REC-SVG-20010904/DTD/svg10.dtd">
<svg version="1.0" xmlns="http://www.w3.org/2000/svg"
 width="240.000000pt" height="210.000000pt" viewBox="0 0 240.000000 210.000000"
 preserveAspectRatio="xMidYMid meet">

<g transform="translate(0.000000,210.000000) scale(0.100000,-0.100000)"
fill="#000000" stroke="none">
<path d="M1213 1836 c-87 -28 -184 -114 -198 -175 -8 -37 15 -81 42 -81 14 0
13 3 -5 16 -29 20 -28 57 2 108 57 98 219 162 276 111 17 -16 20 -16 15 -3 -6
16 -55 39 -79 37 -6 0 -30 -6 -53 -13z"/>
<path d="M1388 1805 c16 -87 -142 -231 -280 -254 l-53 -9 60 -1 c44 -1 74 6
112 23 62 29 135 94 157 140 17 36 22 111 7 120 -4 3 -6 -6 -3 -19z"/>
<path d="M1310 1526 c0 -2 9 -6 20 -9 11 -3 18 -1 14 4 -5 9 -34 13 -34 5z"/>
<path d="M924 1483 c-13 -20 -20 -48 -21 -96 l-1 -69 -89 -50 c-135 -77 -123
-46 -123 -306 0 -189 2 -223 14 -219 8 3 50 28 93 55 l79 49 100 -56 c116 -66
134 -91 134 -186 l0 -60 -67 -41 c-65 -38 -68 -42 -71 -83 l-3 -42 70 38 c61
33 73 36 90 26 12 -7 40 -13 63 -13 37 0 74 18 253 121 116 67 218 128 228
137 15 13 17 35 17 179 l0 163 75 0 c84 0 145 23 166 63 12 22 12 22 -9 4 -11
-11 -38 -25 -59 -33 -41 -14 -141 -18 -160 -6 -7 4 -12 34 -12 75 0 63 2 69
25 77 14 6 44 11 67 12 41 1 41 1 7 5 -19 3 -52 -1 -74 -7 -33 -10 -41 -9 -54
4 -15 15 -14 16 5 16 25 0 39 16 21 23 -7 2 -10 8 -6 12 4 4 18 1 30 -7 20
-13 168 -33 168 -23 0 2 -25 17 -55 34 -70 39 -118 40 -183 4 l-48 -27 -85 49
c-46 27 -94 48 -107 47 -27 -2 -90 28 -113 54 -9 11 -24 33 -32 49 -9 17 -16
24 -17 17 0 -9 -7 -11 -20 -7 -32 10 -80 -4 -80 -23 0 -12 -3 -13 -8 -5 -4 7
-13 9 -20 4 -9 -5 -8 -17 4 -49 9 -22 19 -41 23 -40 3 0 31 0 61 -1 49 -1 72
-10 195 -77 137 -75 161 -92 147 -105 -17 -17 -335 -199 -346 -199 -22 0 -351
197 -351 210 0 7 20 24 45 38 l45 25 33 -30 c33 -30 33 -30 12 -44 -20 -13
-17 -16 55 -56 70 -39 82 -42 159 -44 81 -2 84 -1 160 43 l77 45 -72 41 c-39
23 -78 42 -85 42 -8 0 -14 4 -14 8 0 5 -15 17 -33 27 -31 16 -35 16 -65 1 -18
-9 -32 -23 -32 -30 0 -7 -9 -25 -21 -40 -31 -39 -70 -35 -118 13 -63 63 -89
179 -57 256 18 42 15 44 -10 8z m281 -313 c3 -5 1 -10 -4 -10 -6 0 -11 5 -11
10 0 6 2 10 4 10 3 0 8 -4 11 -10z m-380 -295 l40 -25 -50 6 c-27 3 -56 6 -62
6 -14 1 -17 20 -6 31 12 13 38 7 78 -18z"/>
<path d="M1375 1490 c10 -11 20 -20 23 -20 3 0 -3 9 -13 20 -10 11 -20 20 -23
20 -3 0 3 -9 13 -20z"/>
<path d="M966 1481 c-3 -4 6 -6 19 -3 58 11 114 -70 115 -163 0 -57 -19 -91
-53 -98 -19 -4 -19 -4 5 -6 38 -2 58 32 58 97 0 92 -55 182 -111 182 -15 0
-30 -4 -33 -9z"/>
<path d="M1406 1447 c3 -10 9 -15 12 -12 3 3 0 11 -7 18 -10 9 -11 8 -5 -6z"/>
<path d="M1406 1383 c-6 -14 -5 -15 5 -6 7 7 10 15 7 18 -3 3 -9 -2 -12 -12z"/>
<path d="M1850 1209 c36 -15 60 -39 60 -62 0 -11 3 -18 6 -14 4 3 4 17 0 31
-6 25 -51 57 -78 55 -7 0 -2 -5 12 -10z"/>
<path d="M1993 1057 c-59 -38 -63 -43 -63 -79 0 -21 3 -38 6 -38 17 0 115 64
124 80 12 22 13 80 3 79 -5 0 -36 -19 -70 -42z"/>
<path d="M908 763 c6 -2 18 -2 25 0 6 3 1 5 -13 5 -14 0 -19 -2 -12 -5z"/>
<path d="M822 743 c-35 -17 -56 -46 -48 -66 2 -7 5 -6 5 4 1 23 41 56 81 67
20 6 26 10 15 11 -11 0 -35 -7 -53 -16z"/>
<path d="M985 746 c22 -9 41 -16 43 -16 2 0 9 -15 17 -32 11 -25 14 -28 15
-12 0 28 -39 63 -80 69 l-35 6 40 -15z"/>
<path d="M752 640 c24 -38 58 -59 117 -70 55 -10 109 -6 146 13 27 13 65 48
65 60 0 6 -8 3 -18 -6 -32 -29 -90 -47 -152 -47 -68 0 -116 16 -150 51 l-24
24 16 -25z"/>
<path d="M652 591 c79 -7 123 -34 123 -75 -1 -17 3 -22 9 -16 6 6 7 20 0 37
-13 40 -66 63 -139 61 l-60 -1 67 -6z"/>
<path d="M545 578 c-24 -13 -45 -38 -45 -52 0 -6 5 -3 11 7 6 10 25 27 42 38
34 20 27 26 -8 7z"/>
<path d="M471 484 c-1 -6 9 -20 22 -32 74 -69 227 -70 293 -1 l29 30 -50 -28
c-43 -24 -61 -28 -125 -28 -76 0 -151 26 -163 57 -3 7 -6 8 -6 2z"/>
</g>
</svg>
