<svg width="17" height="18" viewBox="0 0 17 18" fill="none" xmlns="http://www.w3.org/2000/svg">
<path fill-rule="evenodd" clip-rule="evenodd" d="M2.55912 3.369C3.77323 5.13233 5.23781 7.24746 5.81368 8.06902L6.86056 9.56252L3.74884 13.1749C2.03731 15.1616 0.636862 16.8942 0.636862 17.025C0.636862 17.1557 0.913231 17.2629 1.25071 17.2629C1.72121 17.2629 2.46633 16.5713 4.43561 14.3081C5.84939 12.6828 7.1402 11.2046 7.30391 11.0233C7.54155 10.7598 7.92253 11.1657 9.19222 13.0351C10.0671 14.3229 11.1122 15.8013 11.5148 16.3198L12.2469 17.2629H14.6147C15.9171 17.2629 16.9826 17.1681 16.9826 17.0524C16.9826 16.9365 16.548 16.2293 16.0167 15.4807C15.4856 14.732 14.0175 12.6036 12.7546 10.7507L10.4581 7.38225L11.7691 5.84701C12.4903 5.00282 13.845 3.43438 14.7799 2.3616C15.7147 1.28882 16.4796 0.355096 16.4796 0.286947C16.4796 0.218547 16.112 0.170767 15.6624 0.180574C14.9351 0.196669 14.568 0.527607 12.3303 3.18417C10.9472 4.82603 9.75904 6.17217 9.68988 6.17518C9.62073 6.1782 8.65884 4.83056 7.55236 3.18039L5.54058 0.180071L2.94614 0.17127L0.35144 0.16272L2.55912 3.369ZM9.73993 8.66828C12.4787 12.5857 14.7193 15.839 14.7193 15.8981C14.7193 15.9572 14.2951 16.0012 13.7763 15.996C12.9633 15.9877 12.7367 15.8468 12.1317 14.9725C11.7457 14.4147 9.45526 11.131 7.04187 7.67497L2.65418 1.39142L3.70735 1.46862L4.76051 1.54582L9.73993 8.66828Z" fill="#F5D64E"/>
</svg>
